<svg xmlns="http://www.w3.org/2000/svg" viewBox="0 0 71 55" fill="gray">
  <path d="M60.104 4.552A58.81 58.81 0 0046.851.5a41.806 41.806 0 00-1.989 4.1 56.84 56.84 0 00-17.755 0 41.687 41.687 0 00-2.012-4.1 58.77 58.77 0 00-13.308 4.05C3.138 20.038.959 34.45 1.588 48.79a62.646 62.646 0 0019.314 6.19 45.89 45.89 0 003.318-5.424 39.013 39.013 0 01-6.041-2.897c.506-.366 1.005-.746 1.49-1.137 11.72 5.472 24.337 5.472 36.065 0a31.93 31.93 0 001.478 1.137 38.195 38.195 0 01-6.017 2.897 44.35 44.35 0 003.321 5.424 62.01 62.01 0 0019.31-6.19c.689-14.612-1.44-29.023-8.183-44.238zM23.725 37.35c-3.218 0-5.852-2.958-5.852-6.604 0-3.646 2.6-6.603 5.853-6.603 3.255 0 5.891 2.957 5.85 6.603 0 3.646-2.6 6.604-5.85 6.604zm23.53 0c-3.218 0-5.852-2.958-5.852-6.604 0-3.646 2.6-6.603 5.853-6.603 3.254 0 5.89 2.957 5.85 6.603 0 3.646-2.6 6.604-5.85 6.604z"/>
</svg>

