<svg xmlns="http://www.w3.org/2000/svg" viewBox="0 0 24 24" fill="gray">
  <path d="M12 0C5.37 0 0 5.373 0 12c0 5.303 3.438 9.8 8.207 11.387.6.113.793-.258.793-.577v-2.234c-3.338.724-4.033-1.416-4.033-1.416-.546-1.385-1.333-1.753-1.333-1.753-1.09-.745.083-.73.083-.73 1.205.085 1.84 1.237 1.84 1.237 1.07 1.834 2.809 1.304 3.495.997.107-.774.418-1.305.76-1.605-2.665-.3-5.467-1.333-5.467-5.93 0-1.31.468-2.382 1.236-3.22-.124-.303-.536-1.52.117-3.176 0 0 1.008-.322 3.3 1.23.957-.266 1.983-.399 3.003-.404 1.02.005 2.047.138 3.006.404 2.29-1.552 3.296-1.23 3.296-1.23.655 1.656.243 2.873.12 3.176.77.838 1.235 1.91 1.235 3.22 0 4.61-2.807 5.625-5.48 5.922.43.372.815 1.103.815 2.222v3.293c0 .32.192.694.8.576C20.565 21.796 24 17.3 24 12c0-6.627-5.373-12-12-12z"/>
</svg>

